<?xml version="1.0" standalone="no"?>
<!DOCTYPE svg PUBLIC "-//W3C//DTD SVG 20010904//EN"
 "http://www.w3.org/TR/2001/REC-SVG-20010904/DTD/svg10.dtd">
<svg version="1.0" xmlns="http://www.w3.org/2000/svg"
 width="250.000000pt" height="245.000000pt" viewBox="0 0 250.000000 245.000000"
 preserveAspectRatio="xMidYMid meet">
<metadata>
Created by potrace 1.15, written by Peter Selinger 2001-2017
</metadata>
<g transform="translate(0.000000,245.000000) scale(0.100000,-0.100000)"
fill="#000000" stroke="none">
<path d="M0 2446 c0 -4 80 -92 178 -195 97 -103 245 -259 327 -346 218 -232
308 -327 420 -445 55 -58 163 -172 240 -255 77 -82 178 -190 225 -240 183
-193 281 -296 435 -460 87 -94 198 -209 245 -257 82 -83 88 -88 129 -88 58 0
101 41 101 97 0 35 -7 46 -62 99 -91 86 -505 475 -783 734 -132 124 -395 371
-585 549 -190 178 -410 386 -490 460 -80 75 -183 172 -230 216 -124 117 -150
140 -150 131z"/>
<path d="M680 2234 c0 -4 19 -28 42 -53 119 -131 577 -626 1139 -1231 151
-163 312 -337 357 -387 87 -95 127 -120 175 -108 37 10 68 48 74 92 5 37 2 42
-53 94 -99 93 -360 335 -539 499 -94 85 -201 184 -240 220 -38 36 -97 90 -130
120 -58 53 -152 140 -430 396 -71 66 -190 175 -262 243 -73 67 -133 119 -133
115z"/>
<path d="M1266 2028 c18 -23 655 -711 1008 -1089 70 -75 129 -130 144 -134 37
-9 76 23 80 66 3 31 -4 41 -65 99 -125 119 -1139 1048 -1168 1070 -18 14 -18
14 1 -12z"/>
<path d="M216 1760 c33 -41 260 -288 500 -545 82 -89 199 -214 259 -280 61
-66 146 -158 190 -205 44 -47 103 -110 130 -140 328 -357 538 -579 551 -584 8
-3 32 -6 53 -6 53 0 91 41 91 97 0 45 12 32 -370 383 -63 58 -149 137 -190
175 -111 103 -273 252 -555 510 -137 126 -338 311 -445 410 -107 99 -204 187
-215 195 -19 14 -19 14 1 -10z"/>
<path d="M1850 1763 c8 -12 123 -139 255 -282 218 -236 243 -260 270 -258 48
3 45 36 -7 82 -24 21 -65 59 -93 84 -107 99 -392 357 -415 376 l-24 20 14 -22z"/>
<path d="M400 1193 c24 -27 96 -104 160 -173 64 -69 176 -190 250 -270 73 -80
165 -179 204 -220 39 -42 121 -129 181 -195 199 -216 268 -290 292 -312 50
-48 127 -15 121 51 -3 35 -5 36 -712 685 -111 101 -253 231 -316 290 -63 58
-136 125 -161 149 -62 56 -72 53 -19 -5z"/>
<path d="M650 675 c0 -15 495 -546 521 -559 22 -11 49 8 49 34 0 9 -35 48 -77
86 -43 38 -161 146 -263 239 -226 206 -230 210 -230 200z"/>
</g>
</svg>
