<?xml version="1.0" standalone="no"?>
<!DOCTYPE svg PUBLIC "-//W3C//DTD SVG 20010904//EN"
 "http://www.w3.org/TR/2001/REC-SVG-20010904/DTD/svg10.dtd">
<svg version="1.0" xmlns="http://www.w3.org/2000/svg"
 width="282.000000pt" height="245.000000pt" viewBox="0 0 282.000000 245.000000"
 preserveAspectRatio="xMidYMid meet">
<metadata>
Created by potrace 1.15, written by Peter Selinger 2001-2017
</metadata>
<g transform="translate(0.000000,245.000000) scale(0.100000,-0.100000)"
fill="#000000" stroke="none">
<path d="M1372 2413 c-11 -16 -72 -120 -137 -233 -332 -577 -580 -1009 -600
-1045 -11 -22 -84 -148 -160 -280 -76 -132 -164 -285 -195 -340 -226 -402
-270 -483 -270 -493 0 -14 197 -16 1635 -20 594 -2 1099 0 1123 4 23 3 42 10
42 15 0 17 -618 1104 -875 1539 -38 63 -107 183 -155 265 -349 604 -356 615
-374 615 -8 0 -23 -12 -34 -27z m317 -1243 c181 -37 340 -99 470 -185 l74 -49
-29 -23 c-59 -48 -229 -138 -323 -169 -123 -42 -221 -61 -346 -68 -78 -4 -90
-3 -55 4 107 23 190 133 190 253 -1 102 -51 186 -136 228 -61 29 -190 31 -248
4 -46 -22 -111 -102 -126 -153 -44 -158 49 -305 209 -332 l46 -8 -50 -1 c-77
-2 -276 25 -363 49 -119 33 -412 184 -412 212 0 9 94 73 170 115 73 41 242 97
388 128 106 23 132 25 280 20 105 -3 199 -12 261 -25z"/>
</g>
</svg>
