<?xml version="1.0" standalone="no"?>
<!DOCTYPE svg PUBLIC "-//W3C//DTD SVG 20010904//EN"
 "http://www.w3.org/TR/2001/REC-SVG-20010904/DTD/svg10.dtd">
<svg version="1.0" xmlns="http://www.w3.org/2000/svg"
 width="210.000000pt" height="210.000000pt" viewBox="0 0 210.000000 210.000000"
 preserveAspectRatio="xMidYMid meet">
<metadata>
Created by potrace 1.11, written by Peter Selinger 2001-2013
</metadata>
<g transform="translate(0.000000,210.000000) scale(0.100000,-0.100000)"
fill="#000000" stroke="none">
<path d="M785 1831 c13 -13 305 -122 392 -146 107 -30 154 2 57 38 -56 21
-340 95 -394 103 -19 3 -42 7 -50 10 -11 4 -12 2 -5 -5z"/>
<path d="M556 1821 c19 -18 430 -232 723 -378 212 -105 268 -124 325 -109 30
7 50 39 41 66 -10 32 -58 54 -405 183 -629 235 -712 264 -684 238z"/>
<path d="M394 1811 c14 -22 666 -536 981 -772 234 -177 326 -221 425 -204 46
8 90 39 90 64 0 20 -85 145 -118 175 -12 11 -28 16 -38 12 -15 -6 -15 -8 0
-31 9 -14 14 -26 11 -26 -3 -1 -9 -3 -15 -4 -5 -1 -14 -3 -20 -4 -17 -2 -11
-23 12 -48 16 -17 18 -23 7 -23 -8 0 -19 4 -24 8 -6 5 -23 14 -40 21 -30 13
-30 13 -11 -8 11 -12 15 -21 11 -21 -5 0 0 -7 11 -15 18 -14 18 -14 -8 -15
-15 0 -33 -7 -42 -15 -22 -22 -27 -19 -24 19 1 19 -4 41 -10 49 -10 12 -10 16
-1 19 7 2 -3 14 -22 26 -40 25 -19 29 36 6 20 -8 34 -11 31 -6 -3 5 8 15 25
22 28 12 67 55 58 64 -9 8 -114 68 -197 112 -103 55 -134 72 -452 244 -98 53
-156 84 -350 187 -245 131 -332 174 -326 164z"/>
<path d="M326 1719 c66 -77 366 -431 593 -698 447 -528 593 -681 699 -733 54
-27 69 -30 116 -25 124 13 141 69 58 189 -34 50 -230 249 -352 358 -46 41 -88
80 -94 85 -6 6 -45 39 -86 74 -41 36 -79 70 -85 76 -5 6 -48 43 -95 82 -47 39
-191 160 -320 269 -408 342 -469 393 -492 405 -12 7 14 -30 58 -82z m1336
-1161 c23 -19 28 -55 17 -110 -13 -57 -31 -70 -102 -71 -38 0 -53 4 -63 18
-17 23 -18 47 -2 63 17 17 33 15 18 -2 -6 -8 -10 -25 -8 -38 3 -20 9 -23 55
-25 74 -2 88 11 88 89 0 58 -2 63 -23 66 -13 2 -30 -2 -38 -8 -17 -15 -19 1
-2 18 15 15 40 15 60 0z m-92 -53 c16 -19 30 -19 30 1 0 8 4 13 9 10 12 -8 8
-30 -8 -50 -15 -18 -41 -21 -41 -5 0 5 5 7 10 4 18 -11 11 8 -12 32 -12 13
-17 23 -11 23 6 0 16 -7 23 -15z"/>
<path d="M345 1485 c98 -191 114 -222 265 -505 225 -422 293 -542 346 -612 73
-94 147 -137 201 -117 50 18 49 115 -1 224 -26 56 -152 254 -197 309 -15 18
-353 448 -501 636 -222 284 -225 285 -113 65z m773 -1007 l23 -37 -63 -40
c-34 -23 -64 -41 -67 -41 -7 0 -77 108 -86 131 -4 11 11 27 56 57 l62 40 27
-36 c14 -20 36 -54 48 -74z"/>
<path d="M1010 480 c-13 -9 -13 -11 0 -20 15 -10 40 -14 40 -6 0 11 -13 36
-19 36 -3 0 -13 -5 -21 -10z"/>
<path d="M240 1502 c0 -27 216 -606 292 -782 53 -123 82 -164 108 -150 18 10
33 40 35 70 2 42 -81 228 -201 450 -25 47 -75 141 -111 210 -36 69 -72 132
-79 141 -8 8 -14 20 -14 25 -1 14 -30 50 -30 36z"/>
<path d="M230 1310 c0 -19 52 -218 85 -326 26 -85 49 -119 65 -95 12 20 -10
98 -74 266 -55 144 -76 187 -76 155z"/>
</g>
</svg>
