<?xml version="1.0" standalone="no"?>
<!DOCTYPE svg PUBLIC "-//W3C//DTD SVG 20010904//EN"
 "http://www.w3.org/TR/2001/REC-SVG-20010904/DTD/svg10.dtd">
<svg version="1.0" xmlns="http://www.w3.org/2000/svg"
 width="1024.000000pt" height="1024.000000pt" viewBox="0 0 1024.000000 1024.000000"
 preserveAspectRatio="xMidYMid meet">
<metadata>
Created by potrace 1.11, written by Peter Selinger 2001-2013
</metadata>
<g transform="translate(0.000000,1024.000000) scale(0.100000,-0.100000)"
fill="#000000" stroke="none">
<path d="M2564 9179 c-22 -37 139 -134 796 -481 52 -28 118 -63 145 -78 28
-15 118 -62 200 -105 83 -43 155 -81 160 -85 6 -4 91 -49 190 -100 99 -51 225
-116 280 -145 55 -29 168 -87 250 -130 83 -43 200 -103 260 -135 61 -31 205
-106 320 -165 116 -59 275 -142 355 -183 631 -326 1575 -790 1812 -892 366
-155 764 -107 859 105 24 53 19 136 -11 194 -44 86 -170 191 -300 249 -130 57
-1645 630 -2825 1067 -143 53 -343 127 -445 165 -102 37 -273 101 -380 140
-107 39 -204 75 -215 80 -11 5 -72 27 -135 50 -63 22 -124 44 -135 49 -63 29
-1063 386 -1110 396 -16 4 -37 9 -47 11 -9 3 -20 -1 -24 -7z"/>
<path d="M3770 9177 c0 -38 383 -199 985 -414 219 -78 251 -89 635 -222 406
-141 634 -201 760 -201 108 0 250 71 234 117 -10 26 -35 53 -50 53 -7 0 -14 3
-16 8 -6 14 -144 72 -293 121 -168 56 -712 211 -830 236 -11 3 -56 14 -100 25
-328 87 -710 180 -915 225 -135 29 -285 57 -340 61 -59 6 -70 4 -70 -9z"/>
<path d="M1760 9085 c0 -18 279 -258 625 -535 99 -80 189 -153 200 -162 17
-14 614 -487 714 -566 43 -34 189 -149 256 -202 71 -57 348 -274 650 -510 143
-112 287 -225 320 -251 33 -26 240 -188 460 -359 220 -172 414 -322 430 -335
17 -13 127 -99 245 -190 118 -92 229 -177 245 -190 40 -32 185 -144 375 -290
142 -110 911 -687 991 -745 234 -169 559 -387 649 -436 19 -10 42 -24 50 -31
8 -6 61 -34 118 -62 254 -127 440 -173 697 -173 273 -1 493 70 596 190 73 85
72 159 0 306 -128 262 -480 708 -635 805 -80 50 -145 36 -164 -34 -14 -48 4
-88 68 -159 33 -37 60 -72 60 -79 -1 -33 -19 -40 -104 -43 -103 -3 -143 -22
-152 -70 -10 -53 25 -113 117 -202 66 -63 81 -84 72 -93 -18 -18 -115 17 -302
108 -149 72 -231 107 -237 100 -6 -5 11 -22 78 -81 78 -67 110 -112 101 -144
-7 -27 10 -48 58 -73 73 -37 72 -91 -2 -89 -19 1 -61 2 -95 3 -73 2 -102 -15
-209 -122 -38 -38 -72 -68 -76 -65 -4 2 -4 21 -1 41 2 21 5 110 6 199 1 179
-4 199 -58 228 -42 23 -60 57 -42 82 11 14 22 16 61 11 l49 -7 -23 24 c-12 13
-59 50 -104 82 -180 127 -195 142 -168 158 19 12 140 -27 287 -92 104 -46 164
-65 164 -51 0 5 -6 18 -12 29 -22 34 2 52 103 81 73 21 100 34 121 58 19 22
37 31 58 31 35 0 58 20 104 93 43 67 66 122 66 156 0 23 -21 38 -212 146 -116
66 -238 135 -272 153 -34 19 -124 69 -201 111 -77 43 -176 97 -220 121 -44 24
-102 55 -130 70 -27 15 -104 56 -170 90 -66 35 -133 71 -150 80 -16 10 -75 41
-130 70 -55 29 -176 95 -270 145 -175 95 -287 155 -435 233 -47 25 -116 62
-153 84 -38 21 -71 38 -73 38 -7 0 -324 174 -464 255 -131 75 -189 108 -330
183 -47 25 -111 60 -143 79 -32 18 -60 33 -63 33 -2 0 -79 41 -170 90 -90 50
-166 90 -168 90 -3 0 -35 17 -73 38 -37 22 -113 63 -168 92 -55 29 -131 70
-170 90 -125 68 -598 322 -660 355 -33 18 -94 50 -135 72 -71 38 -121 65 -307
164 -43 23 -105 56 -138 74 -81 44 -207 110 -340 180 -60 32 -159 83 -220 115
-192 101 -636 324 -732 368 -87 40 -113 48 -113 37z"/>
<path d="M1070 9053 c0 -25 50 -90 235 -308 150 -177 361 -424 539 -635 82
-96 160 -188 175 -205 25 -29 272 -320 835 -984 142 -168 273 -322 290 -341
17 -20 51 -60 76 -90 25 -30 86 -101 135 -159 86 -101 585 -690 784 -925 51
-61 105 -124 120 -141 14 -16 172 -203 351 -415 178 -212 351 -417 384 -456
34 -38 82 -95 107 -125 107 -126 363 -426 388 -454 14 -17 93 -109 175 -205
82 -96 168 -195 190 -220 23 -25 62 -70 88 -100 25 -30 54 -64 65 -76 10 -12
43 -50 73 -84 143 -164 477 -539 589 -659 53 -58 125 -137 161 -175 78 -85
580 -588 632 -633 132 -115 186 -159 283 -232 297 -224 547 -319 840 -319 96
-1 125 4 222 33 405 120 496 292 335 635 -20 41 -38 77 -42 80 -4 3 -9 12 -13
20 -34 77 -239 352 -389 521 -31 35 -66 75 -78 89 -116 135 -578 605 -826 840
-307 291 -586 549 -724 670 -33 29 -195 175 -250 226 -67 62 -538 476 -635
559 -38 33 -74 65 -80 71 -5 6 -41 37 -80 70 -38 32 -72 61 -75 64 -3 3 -39
34 -80 70 -41 36 -77 67 -80 70 -3 3 -68 59 -145 125 -77 66 -153 132 -170
146 -38 34 -294 253 -395 339 -288 244 -348 295 -375 319 -16 15 -86 74 -155
131 -69 58 -127 107 -130 110 -3 3 -133 113 -290 245 -157 131 -314 264 -350
294 -36 31 -119 101 -185 156 -66 55 -122 102 -125 105 -3 3 -111 93 -240 201
-276 230 -555 463 -625 523 -151 129 -1101 928 -1169 983 -89 72 -241 187
-288 217 -56 35 -78 43 -78 29z m7141 -6363 c49 -14 99 -49 126 -88 49 -73 59
-255 28 -482 -3 -27 -9 -52 -25 -118 -15 -64 -64 -165 -91 -190 -138 -129
-534 -110 -681 33 -83 81 -96 266 -24 334 26 25 106 41 106 22 0 -6 -20 -38
-44 -71 -25 -33 -47 -74 -51 -91 -32 -145 165 -270 405 -256 155 9 253 66 305
179 33 72 43 155 41 353 -1 148 -3 163 -25 205 -29 56 -58 86 -102 104 -78 32
-154 0 -215 -92 -49 -73 -72 -60 -57 31 15 98 173 163 304 127z m-475 -264
c33 -24 97 -80 144 -125 47 -45 88 -81 92 -81 4 0 -2 32 -13 71 -28 101 -28
109 1 109 26 0 43 -29 74 -124 39 -120 41 -141 19 -163 -16 -16 -31 -19 -74
-17 -106 6 -221 23 -233 34 -20 20 9 30 84 30 43 0 81 4 84 8 6 9 -36 57 -84
95 -63 52 -162 152 -176 180 -13 25 -13 27 5 27 10 0 45 -20 77 -44z"/>
<path d="M1052 8333 c26 -55 303 -605 403 -798 125 -242 217 -420 260 -500 23
-44 72 -136 107 -205 165 -316 304 -582 343 -655 23 -44 107 -201 185 -350 78
-148 161 -306 185 -350 23 -44 66 -125 95 -180 29 -55 72 -136 95 -180 24 -44
80 -150 125 -235 70 -133 208 -391 363 -680 39 -74 74 -139 141 -263 18 -34
98 -181 176 -327 78 -146 155 -287 170 -315 48 -87 235 -435 300 -560 349
-663 614 -1059 905 -1351 201 -201 359 -300 541 -338 63 -13 151 -15 200 -3
43 10 106 49 140 85 146 154 144 526 -5 899 -55 139 -188 405 -256 513 -12 19
-54 90 -94 157 -88 150 -347 540 -506 763 -118 164 -454 620 -465 630 -3 3
-19 23 -35 45 -24 32 -327 423 -357 460 -4 5 -103 129 -220 275 -280 350 -498
622 -552 690 -25 30 -115 145 -201 255 -86 110 -161 207 -168 215 -7 8 -39 51
-72 95 -33 44 -63 82 -66 85 -3 3 -68 86 -144 185 -76 99 -158 205 -181 235
-71 91 -284 364 -301 384 -9 11 -30 38 -47 60 -49 64 -255 324 -369 466 -7 9
-39 49 -72 90 -33 41 -65 82 -72 90 -7 8 -37 47 -68 85 -31 39 -64 79 -73 90
-325 393 -406 485 -423 485 -5 0 1 -21 13 -47z m4044 -5551 c12 -8 219 -300
371 -525 53 -78 104 -153 115 -166 24 -31 30 -25 -152 -150 -80 -55 -150 -104
-155 -109 -52 -43 -320 -212 -330 -208 -14 5 -103 127 -160 218 -76 122 -231
360 -279 430 l-54 77 27 24 c14 13 82 61 150 106 67 45 195 134 283 197 88 63
163 114 167 114 3 0 11 -4 17 -8z"/>
<path d="M5020 2312 c-25 -16 -71 -49 -103 -74 l-57 -46 117 -65 c137 -75 161
-84 169 -64 7 18 -59 270 -72 274 -5 2 -30 -10 -54 -25z"/>
<path d="M984 7513 c13 -71 170 -550 216 -658 5 -11 36 -99 71 -195 52 -147
249 -690 349 -960 15 -41 46 -127 69 -190 24 -63 48 -128 56 -145 7 -16 18
-48 25 -70 7 -22 18 -53 26 -70 7 -16 56 -142 108 -280 390 -1032 749 -1885
883 -2093 42 -67 118 -149 155 -168 52 -27 89 -16 157 49 89 84 133 187 132
305 0 58 -5 90 -27 198 -11 55 -51 172 -110 322 -65 165 -79 196 -181 417 -53
115 -462 929 -535 1065 -19 36 -68 128 -108 205 -106 204 -169 323 -200 380
-15 28 -56 104 -90 170 -34 66 -75 143 -90 170 -15 28 -67 124 -115 215 -144
270 -179 336 -265 495 -341 628 -488 875 -522 875 -6 0 -8 -14 -4 -37z"/>
<path d="M946 6552 c-18 -30 32 -254 176 -792 198 -742 343 -1234 394 -1337
40 -84 84 -123 135 -123 130 0 124 178 -21 620 -37 112 -137 387 -155 427 -8
17 -15 34 -15 37 0 3 -15 45 -34 94 -19 48 -71 184 -116 302 -45 118 -85 224
-90 235 -5 11 -38 98 -74 192 -36 95 -80 202 -98 238 -43 90 -85 134 -102 107z"/>
</g>
</svg>
